<?xml version="1.0" ?><svg style="enable-background:new 0 0 512 512;" version="1.1" viewBox="0 0 512 512" xml:space="preserve" xmlns="http://www.w3.org/2000/svg" xmlns:xlink="http://www.w3.org/1999/xlink"><style type="text/css">
	.st0{fill:#343E68;}
	.st1{fill:#7082E1;}
	.st2{fill:#5567A0;}
	.st3{fill:#FFFFFF;}
</style><g id="Edges"/><g id="Background_Bottom"><g><path class="st0" d="M492.3,443.1c0,34.2-27.7,61.9-61.9,61.9H80.7c-34.2,0-61.9-27.7-61.9-61.9V93.4c0-34.2,27.7-61.9,61.9-61.9    h349.7c34.2,0,61.9,27.7,61.9,61.9V443.1z"/></g></g><g id="Background"><path class="st1" d="M492.3,418.4c0,34.2-27.7,61.9-61.9,61.9H80.7c-34.2,0-61.9-27.7-61.9-61.9V68.6c0-34.2,27.7-61.9,61.9-61.9   h349.7c34.2,0,61.9,27.7,61.9,61.9V418.4z"/></g><g id="Shadow"><path class="st2" d="M392.3,109.3c-5.6-8.3-15.1-13.7-25.8-13.7c-0.2,0-0.4,0-0.6,0c0,0,0,0,0,0c-73.8,0-147.6,0-221.4,0   c0,0,0,0-0.1,0c-0.2,0-0.5,0-0.7,0c-17.2,0-31.1,13.9-31.1,31.1c0,1.1,0.1,2.2,0.2,3.2c0,0.6,0,1.2,0,1.8   c0,66.9-0.1,133.8-0.1,200.7h-0.1v14.7h0c0,0.1,0,0.2,0,0.3c0,8.7,3.6,16.6,9.3,22.2l-0.4,0.4l110.1,110.1h32.5l0.3-0.3   c11.1,0,68.3,0.2,112.5,0.3h0c29.7,0.1,53.5,0.1,53.5,0.1c34.2,0,61.9-27.7,61.9-61.9v-40v-59.5V209.3L392.3,109.3z"/></g><g id="Symbol"><g><path class="st3" d="M220.6,220.4c-7.2,3.4-11,12.2-8.7,20.4c2.1,7.4,8.1,12.3,15.1,12.3c3.4,0,6.5-1.1,9.1-3.3    c4.4-3.6,5.9-8.5,6.6-14.1C244,224.1,230.8,215.5,220.6,220.4z"/><path class="st3" d="M397.5,130.5c0-0.4,0-0.8,0-1.2c0.1-0.9,0.1-1.8,0.1-2.7c0-17.2-13.9-31.1-31.1-31.1c-0.2,0-0.4,0-0.6,0    c0,0,0,0,0,0c-73.8,0-147.6,0-221.4,0c0,0,0,0-0.1,0c-0.2,0-0.5,0-0.7,0c-17.2,0-31.1,13.9-31.1,31.1c0,1.1,0.1,2.2,0.2,3.2    c0,0.6,0,1.2,0,1.8c0,66.9-0.1,133.8-0.1,200.7h-0.1V347h0c0,0.1,0,0.2,0,0.3c0,16.7,13.2,30.4,29.8,31.1c2.1,0.2,4.2,0.3,6.3,0.3    c56.8,0,180.7-0.1,180.7-0.1s-5.1-21.8-6.4-27c3.2,0.5,74.7,65,74.7,65S397.6,223.4,397.5,130.5z M322.5,357.1    c-0.1,0-0.1-0.1-0.2-0.1c0.1-0.2,0.2-0.3,0.2-0.5C322.5,356.7,322.5,356.9,322.5,357.1z M343.2,268.9c-7.6,9.9-17.7,16-29.6,19    c-4.6,1.2-9.3,1.6-14,2.2c-0.7,0.1-1.8-0.1-2.3-0.6c-3.1-3.7-6.1-7.4-9.4-11.4c10.9-3.4,20.2-8.7,27.5-18.1    c-39.8,23-79.1,22.3-118.4,0.4c1,2.5,5.4,7,11.2,10.5c4.5,2.7,9.4,4.8,14.2,7.2c-0.4,0.6-1.1,1.5-1.8,2.3c-1.7,2.1-3.5,4-4.9,6.2    c-1.9,2.9-4.1,3.7-7.6,3.4c-14.3-1.6-26.9-6.7-37.2-17c-3.7-3.7-4.8-7.6-4.6-12.9c1.3-24.3,7-47.5,16.2-70    c1.3-3.1,2.9-6.1,4.2-9.2c0.9-2.2,2.4-3.7,4.3-5c9.6-6.4,19.9-11,31.4-13c2.3-0.4,4.7-0.7,7.1-0.8c0.9,0,1.8,0.7,2.6,1.3    c-9.5,3.2-18.7,6.7-27.2,11.6c-3.4,2-6.7,4.3-10,6.5c-0.7,0.5-1.3,1.1-2.2,1.7c40.6-19.4,80.9-20.3,121.4-0.5    c-10.8-8.7-23.3-14.1-36.4-18.4c0.9-2,2.3-2.4,4.4-2.2c14.2,1.3,26.8,6.5,38.4,14.6c1.1,0.8,2.1,1.9,2.7,3    c9,18.1,15,37.2,18.4,57.2c1.6,9.3,2.4,18.7,2.6,28.2C344.4,266.5,343.9,268,343.2,268.9z"/><path class="st3" d="M271.9,223.5c-4.2,4.3-5.5,9.5-4.8,15.3c0.9,7.9,7.8,14.3,15.5,14.5c1.8-0.4,3.6-0.6,5.3-1.3    c10.3-4.1,13.6-17.9,6.5-27.1C288.9,217.6,278.3,216.9,271.9,223.5z"/></g></g></svg>